# xmcd
#
# Track frame offsets: 
#        150
#        11010
#        21113
#        33662
#        44106
#        55266
#        63719
#        74573
#        86760
#        99443
#        109103
#        119185
#        129869
#        142932
#        153051
#        164383
#        174799
#        186996
#        202675
#        213858
#        221729
#        231677
#        240118
#        249548
#        259846
#
# Disc length: 3601 seconds
#
# Revision: 2
# Processed by: cddbd v1.5.2PL0 Copyright (c) Steve Scherf et al.
# Submitted via: ExactAudioCopyFreeDBPlugin 1.0
#
DISCID=690e0f19
DTITLE=Various Artist - The Best of Doo Wop [Real Gone Music]
DYEAR=2017
DGENRE=Rhythm and Blues
TTITLE0=The Pentagons - To Be Loved (Forever)
TTITLE1=The Spaniels - I Know
TTITLE2=The Fiestas - Dollar Bill
TTITLE3=The Cadillacs - I'm Willing
TTITLE4=The Moonglows - Mama Loocie
TTITLE5=The Desires - Rendezvous with You
TTITLE6=The Dubs - Don't Laugh at Me
TTITLE7=The Five Satins - I'll Be Seeing You
TTITLE8=The Falcons - The Teacher
TTITLE9=The Skyliners - Pennies from Heaven
TTITLE10=The Chaperones - Cruise to the Moon
TTITLE11=The Flares - Foot Stomping
TTITLE12=Shep and The Limelites - Daddy's Home
TTITLE13=The Regents - Barbara Ann
TTITLE14=The Jive Five - My True Story
TTITLE15=The Marcels - Blue Moon
TTITLE16=Curtis Lee - Pretty Little Angel Eyes
TTITLE17=Little Ceasar and The Romans - Those Oldies But Goodies
TTITLE18=The Dreamlovers - When We Get Married
TTITLE19=The Tokens - Tonight I Fell in Love
TTITLE20=The Jarmels - A Little Bit of Soap
TTITLE21=The Cleftones - Heart and Soul
TTITLE22=The Velvets - Tonight (Could Be the Night)
TTITLE23=The Stereos - I Really Love You
TTITLE24=The Blue Jays - Lover's Island
EXTD=
EXTT0=
EXTT1=
EXTT2=
EXTT3=
EXTT4=
EXTT5=
EXTT6=
EXTT7=
EXTT8=
EXTT9=
EXTT10=
EXTT11=
EXTT12=
EXTT13=
EXTT14=
EXTT15=
EXTT16=
EXTT17=
EXTT18=
EXTT19=
EXTT20=
EXTT21=
EXTT22=
EXTT23=
EXTT24=
PLAYORDER=
